<?xml version="1.0" encoding="utf-8"?>
<svg xmlns="http://www.w3.org/2000/svg" viewBox="0 0 512 512">
  <path d="M 475.275 174.349 C 478.2 182.299 475.732 191.163 469.427 196.83 L 429.857 232.834 C 430.863 240.42 431.411 248.187 431.411 256.046 C 431.411 263.905 430.863 271.673 429.857 279.257 L 469.427 315.263 C 475.732 320.928 478.2 329.792 475.275 337.743 C 471.254 348.618 466.411 359.036 460.837 369.088 L 456.542 376.49 C 450.511 386.542 443.748 396.046 436.345 405.002 C 430.954 411.581 421.999 413.775 413.957 411.216 L 363.056 395.041 C 350.811 404.453 337.286 412.312 322.847 418.252 L 311.425 470.432 C 309.597 478.748 303.2 485.328 294.793 486.698 C 282.182 488.8 269.205 489.897 255.954 489.897 C 242.704 489.897 229.727 488.8 217.116 486.698 C 208.709 485.328 202.312 478.748 200.484 470.432 L 189.062 418.252 C 174.623 412.312 161.098 404.453 148.852 395.041 L 98.043 411.307 C 90.002 413.866 81.046 411.581 75.655 405.093 C 68.253 396.138 61.49 386.634 55.459 376.581 L 51.163 369.179 C 45.589 359.127 40.746 348.709 36.725 337.834 C 33.8 329.884 36.268 321.02 42.573 315.354 L 82.143 279.349 C 81.137 271.673 80.589 263.905 80.589 256.046 C 80.589 248.187 81.137 240.42 82.143 232.834 L 42.573 196.83 C 36.268 191.163 33.8 182.299 36.725 174.349 C 40.746 163.474 45.589 153.057 51.163 143.005 L 55.459 135.603 C 61.49 125.55 68.253 116.046 75.655 107.091 C 81.046 100.511 90.002 98.318 98.043 100.877 L 148.944 117.052 C 161.19 107.639 174.714 99.78 189.153 93.84 L 200.576 41.66 C 202.403 33.344 208.8 26.764 217.207 25.393 C 229.819 23.2 242.796 22.104 256.046 22.104 C 269.296 22.104 282.273 23.2 294.884 25.302 C 303.292 26.673 309.688 33.252 311.516 41.568 L 322.938 93.748 C 337.378 99.689 350.902 107.548 363.148 116.96 L 414.048 100.786 C 422.09 98.227 431.046 100.511 436.437 106.999 C 443.839 115.955 450.602 125.459 456.633 135.511 L 460.929 142.913 C 466.503 152.966 471.345 163.383 475.367 174.258 L 475.275 174.349 Z M 256.046 329.153 C 312.324 329.153 347.497 268.231 319.358 219.493 C 306.299 196.874 282.164 182.939 256.046 182.939 C 199.768 182.939 164.594 243.862 192.733 292.6 C 205.793 315.219 229.928 329.153 256.046 329.153 Z" style="fill: none; stroke: rgb(0, 0, 0); stroke-width: 32px;"/>
</svg>